<svg xmlns="http://www.w3.org/2000/svg" xmlns:xlink="http://www.w3.org/1999/xlink" viewBox="0 0 540.75 548.96"><defs><style>.cls-1{fill:none;}.cls-2{clip-path:url(#clip-path);}.cls-3{fill:#fcc300;}.cls-4{fill:#d1611f;}.cls-5{fill:#782011;}.cls-6{fill:#43aab9;}.cls-7{fill:#3a2a1f;}.cls-8{fill:#4aa435;}.cls-9{fill:#782111;}.cls-10{fill:#c22023;}.cls-11{font-size:116.35px;fill:#1d1d1b;font-family:GaramondPremrPro-Bd, Garamond Premier Pro;letter-spacing:0em;}.cls-12{letter-spacing:0.02em;}.cls-13{letter-spacing:0.03em;}.cls-14{letter-spacing:0.05em;}.cls-15{letter-spacing:0.03em;}.cls-16{letter-spacing:0.01em;}</style><clipPath id="clip-path" transform="translate(0 0)"><rect class="cls-1" x="85.18" width="455.57" height="548.96"/></clipPath></defs><title>logo-africarxiv-square</title><g id="Calque_2" data-name="Calque 2"><g id="Calque_1-2" data-name="Calque 1"><g id="Africa_Icon_AfricArxiv" data-name="Africa Icon AfricArxiv"><g class="cls-2"><g class="cls-2"><path class="cls-3" d="M187.7,240.11c-7.28,1.26-14.48,1.17-21.28-2-4.36-2-8-1.39-10,2.82-3.56,7.42-9,6.52-14.85,3.92-6.3-2.78-12.49-5.8-18.72-8.72-.5-5,4-5.43,6.85-7,53.53-29.61,107.32-58.76,160.92-88.26,4.33-2.38,7.85-6,12.59-7.69,8.9-3,16.5-8.69,25.1-12.31,3.2-1.35,6.26-3.47,10.06-2.8,15.48-2.1,28.85-10.19,43.25-15.34s28.81-10.86,42.86-17.12c6.07-2.7,9-1.22,11.6,4.11,3,6.22,5.37,12.59,5.84,19.54-8,8.07-18.68,12.08-28.51,17-56,27.91-111.06,57.7-167,85.74q-20.72,10.39-41.05,21.65c-2.67,1.88-5.41,3.61-8.84,3.64-2.88,1.06-6,1.48-8.77,2.86" transform="translate(0 0)"/><path class="cls-4" d="M373.83,48.88a57.59,57.59,0,0,0,19.8-4.34c9.28-3.71,15.7-1,19.36,8.27-2.82,6.32-9.19,8-14.56,10.95-31.67,17.18-63.34,34.37-94.7,52.11-16.88,7.86-32.19,18.72-49.47,25.81-4.85,1-9.19,3.36-13.85,4.89a11.21,11.21,0,0,1-5.11,1Q182.64,170.68,130,193.82c-11.1,4.89-22.21,9.78-33.16,15-4.84,2.3-7.77,2.54-8.94-3.76-1.84-9.95-4.27-19.8-1.37-29.93C124.8,158.16,163,141,201.25,124c52.51-23.54,105.15-46.78,157.58-70.48,4.83-2.19,10.12-2.71,15-4.66" transform="translate(0 0)"/><path class="cls-5" d="M269.37,281.67c-.19-7.14.92-14.34-2.74-21.15-2.8-5.23,3.07-5,5.16-6.07,33.17-17.18,66.51-34,99.8-51,28.33-14.43,56.74-28.72,84.9-43.49,6.15-3.23,9.81-3,13.33,3.23,3.93,7,14.72,12.47,13,19.13-1.32,5.14-12.68,7.76-19.63,11.4q-23.91,12.51-47.88,24.94c-1.58,3.63-5.18,5.24-7.84,7.79-16.37,6.22-31,16.14-47.52,22.11-12.1,2.22-23,7.83-34.08,12.6-15.09,6.47-30.49,12.16-45.45,18.94-3.35,1.52-6.93,4.27-11.06,1.59" transform="translate(0 0)"/><path class="cls-6" d="M304,474.44c-2.75-11.83-7.66-22.86-13-33.66-2.19-4.44-1.27-6,3-7.78q83.88-34.17,167.59-68.72c5.08-2.09,6.57-.35,6.92,4.19,1.05,13.74-.44,26.82-10,37.76-8.81,7.19-19.79,10-29.92,14.47-40.25,17.62-80.77,34.64-120.83,52.69a15.62,15.62,0,0,1-3.78,1.05" transform="translate(0 0)"/><path class="cls-3" d="M258.53,14.82c7.07,1.1,13-3.77,21.39-4.34-9.35,11.8-.95,18.31,7.14,26l-187,61.37c6.1-10.42,12.39-17.15,18.37-24.12,12.64-10.62,28.81-14.14,43.27-21.07,17.5-8.38,35.79-15.08,53.35-23.4,11.29-4.57,22.38-9.65,34-13.36,3-1,6-3,9.44-1.11" transform="translate(0 0)"/><path class="cls-7" d="M304,474.44c.51-3.12,3.12-3.9,5.5-4.93q72.15-31.15,144.31-62.27a24.28,24.28,0,0,1,4.72-1c-6.59,16-17.33,28.49-33.1,35.52-37.05,16.51-74.51,32.09-111.57,48.59-8.1,3.6-9.45,1.31-8.95-6.14.21-3.22-.58-6.51-.91-9.76" transform="translate(0 0)"/><path class="cls-8" d="M425.36,449.35c-37.91,19.57-74.13,38.67-110.79,56.88-9.42,4.69-11.08,9.79-6.23,18.24,2.06,7.64,7.42,12.45,14,16.23,3.15.79,5.8-.66,8.48-1.92,23.87-11.18,46.62-24.53,70.31-36.07,2.77-1.36,4.64-3.58,6.6-5.77,1.85-5.13,8.47-6.41,9.73-12h0c-1.13-12.07,9.05-22,7.91-35.57" transform="translate(0 0)"/><path class="cls-8" d="M531.81,396.55c-1.69,20.88-5.34,40.63-27.87,50-3.25,1.36-6.16,3.53-9.22,5.32-1.41,2.51-3.82,3.8-6.24,5.07-2.52,1-5,2.8-7.68.34-2.48-11.8,5.61-22.15,4.39-34.24-.59-5.79,7.79-10.64,13.9-9.67,8.69,1.38,10.88-3.67,13.62-9.32,5.57-4.53,11.24-8.8,19.1-7.52" transform="translate(0 0)"/><path class="cls-7" d="M540,202c-1.12-5.85-3.69-8.85-10-4.63a31.54,31.54,0,0,1-13.43,5.51,51.11,51.11,0,0,1-5,2.84Q393.35,256.79,275.15,307.82l4.05,5.39,9.49,11.88,122.65-53.65,46.91-19.38c2.5-1.32,5.29-1.45,8-2,.3-.62.6-1.23.89-1.85,5.76-2.77,13.07-2.1,17.49-7.86,2.92-1.4,5.87-2.77,8.77-4.22,15.3-7.64,32.09-12.09,46.49-21.65a1.75,1.75,0,0,1-1-.57c.33.18.66.36,1,.57,1.39-4.17.87-8.41.08-12.54" transform="translate(0 0)"/><path class="cls-3" d="M322.33,540.7l85.39-43.76c1.48,7.81-2.9,12.05-9.12,15.48-9.68,5.34-19.22,11-28.82,16.44-11.63,7.66-23.25,15.36-37.67,16.81-3.89-.42-7.34-1.7-9.78-5" transform="translate(0 0)"/><path class="cls-7" d="M217.67,8.48c-5.16,3.14-10.59,7.69-15.74,8.79-16.85,3.61-31.06,13.21-47.1,18.31-7.63,2.42-11.3,7.09-11.07,15-3.13,5.67-8.07,9.22-13.81,11.93-5.12,2.41-10,5.16-11.48,11.28l97.59-42.59h0l42.46-16.35c4-6,12.6-4.72,17.19-10.59-20.23-5.52-39.44-7.06-58.05,4.25" transform="translate(0 0)"/><path class="cls-3" d="M496.83,453.79l18-5.46c.57,5.85-.82,10.81-2.71,15.72-9.62,8.09-20.55,13.32-33.12,14.88-1.63-6.15.05-12,1.59-17.87,2.9-3.59,7.42-4.28,11.23-6.22,1.54-1,3.4-.4,5-1" transform="translate(0 0)"/><path class="cls-9" d="M479,478.93,512.13,464c-2.07,9.59-2,20.23-14.48,23.81-10.3,2.94-13.87,1.6-18.64-8.92" transform="translate(0 0)"/><path class="cls-9" d="M332.11,545.67l37.67-16.81c-7.55,17.6-23.94,24.91-37.67,16.81" transform="translate(0 0)"/><path class="cls-7" d="M413,52.81Q357.79,83.4,302.57,114h0l-48.38,25.55c-4.59,1.91-8.69,4.84-13.44,6.41-1.87,1.2-4.29,1.67-5.29,4l-36,21.1-54.21,27.62c-15.53,2.68-29,11.07-43.72,15.83-9.11,2.94-7.3,6.11-1.09,10.2,5.81,7,14.37,8.73,22.4,11.45q39.22-21.76,78.44-43.53Q252.86,164,304.5,135.44l33.83-17.38c-.14-2.37,2-2.1,3.29-2.82L418,72.71c.28-7.13-2.28-13.54-5-19.9" transform="translate(0 0)"/><path class="cls-7" d="M531.81,396.55l-19.1,7.52c1.57-3.83,2.91-7.77,4.76-11.45,2.36-4.71,5.83-10.05,11.44-8.48,6.1,1.7,3,7.94,2.9,12.41" transform="translate(0 0)"/><path class="cls-3" d="M462.77,332.93c.58-3.09,1.17-6.18,1.75-9.28l-49.3,23.08h0c-7.29,3-14.65,5.82-21.86,9Q336,381,278.76,406.33a12.19,12.19,0,0,0,1.23,13.9c3.08,3.69,7.17-.66,10.55-1.89q76.95-27.9,153.76-56.15c6.77-2.48,15.46-3.58,19.57-8.43,4.42-5.23-1.56-13.66-1.1-20.83" transform="translate(0 0)"/><path class="cls-3" d="M489,242.42c-7.19.47-14.07,2.5-21.05,4.09a12,12,0,0,0-2.49,1.34c-2.26,1.88-5.15,1.83-7.77,2.58-16.49,4.63-31.39,13.28-47.51,18.86-36.4,16.28-73.05,32-109.71,47.65-4.43,1.9-9.64,2.87-11.78,8.15,1.62,11.05,7.25,11.17,16.75,7.92,34.44-11.8,69.22-22.64,103.87-33.84h0l2,2.06a14.64,14.64,0,0,0,6.92-3c1.25-.25,2.49-.53,3.73-.84,9.54-2.26,18.11-7.05,27.28-10.26,21.57-10.48,44.12-18.85,65-30.74,10.45-6.41,14.92-17.27,22.28-28.57L489,242.42" transform="translate(0 0)"/><path class="cls-8" d="M451.24,135.51c-4.16-8.38-7.89-16.92-9.36-26.26-3,1.33-6.07,2.49-9,4q-58.37,30-116.67,60.08-56.46,29.27-112.78,58.81h0c-2.83.91-4.28,4.3-7.67,4.2s-5.86,1.54-8.09,3.78c2.8.25,5.57.31,8-1.47,3.29,0,6.61-.26,9.86.07,15.48,1.58,31.6-3.68,46.51,4.56,2.83,1.56,5.47-1.53,8-2.82q40.29-20.62,80.5-41.43Q393.94,171.51,447.3,144c3.05-1.58,10-2.27,3.94-8.44" transform="translate(0 0)"/><path class="cls-10" d="M368.49,48.45c-7.44-1.59-12.12-7.72-18.43-11.17-7.88.49-15.46,1.11-22,6.77-7.77,6.68-16.5,8.58-25.31,1.15-6.65-5.61-13.13-4.55-20.67-.9-17.41,8.45-35.27,16-52.93,23.91q-61.46,27.66-122.87,55.37c-13.09,4.28-13.67,5.47-10.66,18.51,2.2,9.52,6.17,19.54-5,26.64h0a6.91,6.91,0,0,0-4.06,6.39c2.52,3,4.8.52,7-.44,17.39-7.64,34.79-15.27,52.09-23.11,18.27-8.27,36.45-16.75,54.67-25.15a7.54,7.54,0,0,0,1.44-.67,42.4,42.4,0,0,0,4.64-1.46C242,108.5,277.78,93,313.22,76.73c20.21-9.26,41.16-16.94,60.61-27.85l-5.34-.43" transform="translate(0 0)"/><path class="cls-10" d="M448.27,285.38h0l-26.87,10.33a25.67,25.67,0,0,0-10.05,5.51L373.57,319.1c-6.29,1.68-12,4.62-17.65,7.81a4.53,4.53,0,0,0-4.28,2,362.63,362.63,0,0,0-43.75,19.66h0a1,1,0,0,0-1.31.44,14.44,14.44,0,0,0-8.17,3.69c-5.25,1.18-11.15,2.89-10.87,9.15.7,15.66-4.74,29.9-8.78,44.51,3.38,2.22,6.32.16,9.22-1.12,42.59-18.69,85-37.81,127.53-56.6q13.33-5.89,26.61-11.88c7.9-3.55,16.55-6,22.4-13.08,3.08-9.47,10.62-16.44,14.47-25.48l17.56-24.4c3.73-8,12.88-10.52,17.74-17.39-22.84,7.77-44.35,18.57-66,29" transform="translate(0 0)"/><path class="cls-6" d="M492.73,194.14c-2.82-3.87-5.82-1.08-8.68.06q-33.15,13.32-66.29,26.69c-3.79.35-7.22,1.84-10.67,3.29l-46.9,21.89h0c-5.09-.13-9.48,2.16-14,4q-38.43,15.76-76.83,31.59-.12,5.26-.22,10.51h0a37,37,0,0,0,6,15.63c6.41,1.78,11.42-2.16,16.72-4.35C307.05,297.2,322,290.3,337,283.81q86-37,171.94-74.34c3.15-1.37,7.26-1.91,7.6-6.61-8.77-.66-17.82-.49-23.84-8.72" transform="translate(0 0)"/></g></g></g><text class="cls-11" transform="translate(2.09 340.35)">A<tspan class="cls-12" x="78.65" y="0">f</tspan><tspan class="cls-13" x="117.05" y="0">r</tspan><tspan class="cls-12" x="163" y="0">ic</tspan><tspan class="cls-12"><tspan x="0" y="84.11">A</tspan><tspan class="cls-14" x="81.33" y="84.11">r</tspan><tspan class="cls-15" x="129.96" y="84.11">x</tspan><tspan class="cls-16" x="184.41" y="84.11">i</tspan><tspan x="218.85" y="84.11">v</tspan></tspan></text></g></g></svg>